<?xml version="1.0" encoding="utf-8"?>
<!-- Generator: Adobe Illustrator 17.0.2, SVG Export Plug-In . SVG Version: 6.00 Build 0)  -->
<!DOCTYPE svg PUBLIC "-//W3C//DTD SVG 1.1//EN" "http://www.w3.org/Graphics/SVG/1.1/DTD/svg11.dtd">
<svg version="1.1" id="Layer_1" xmlns="http://www.w3.org/2000/svg" xmlns:xlink="http://www.w3.org/1999/xlink" x="0px" y="0px"
	 width="1330.961px" height="1912.699px" viewBox="0 0 1330.961 1912.699" enable-background="new 0 0 1330.961 1912.699"
	 xml:space="preserve">
<g>
	<g>
		<polygon points="-5303.429,-1487 -6050,-1487 -6050,-560 -5876.344,-560 		"/>
		<polygon points="-5701.059,-560 -5124,-560 -5124,-1487 -5128.144,-1487 		"/>
	</g>
	<text transform="matrix(1 0 0 1 -6073.1797 -313.6667)" font-family="'Montserrat-SemiBold'" font-size="220" letter-spacing="11">REVELA</text>
	<text transform="matrix(1 0 0 1 -5847.2427 -147.0002)" font-family="'Montserrat-SemiBold'" font-size="120" letter-spacing="3">HEALTH</text>
</g>
<g>
	<g>
		<polygon points="-6397.826,-1487 -7144,-1487 -7144,-560 -6970.741,-560 		"/>
		<polygon points="-6795.456,-560 -6218,-560 -6218,-1487 -6222.541,-1487 		"/>
	</g>
	<text transform="matrix(1 0 0 1 -7168.0327 -313.6667)" font-family="'Montserrat-SemiBold'" font-size="220" letter-spacing="11">REVELA</text>
	<text transform="matrix(1 0 0 1 -6921.9941 -147.0002)" font-family="'Montserrat-SemiBold'" font-size="120" letter-spacing="3">GROUP</text>
</g>
<g>
	<g>
		<polygon points="-3113.759,-1487 -3860,-1487 -3860,-560 -3686.674,-560 		"/>
		<polygon points="-3511.389,-560 -2934,-560 -2934,-1487 -2938.474,-1487 		"/>
	</g>
	<text transform="matrix(1 0 0 1 -3883.4741 -313.6667)" font-family="'Montserrat-SemiBold'" font-size="220" letter-spacing="11">REVELA</text>
	<text transform="matrix(1 0 0 1 -3692.2153 -147.0002)" font-family="'Montserrat-SemiBold'" font-size="120" letter-spacing="3">FINANCE</text>
</g>
<g>
	<g>
		<polygon points="-2019.062,-1487 -2765,-1487 -2765,-560 -2591.977,-560 		"/>
		<polygon points="-2416.692,-560 -1839,-560 -1839,-1487 -1843.777,-1487 		"/>
	</g>
	<text transform="matrix(1 0 0 1 -2788.6211 -313.6667)" font-family="'Montserrat-SemiBold'" font-size="220" letter-spacing="11">REVELA</text>
	<text transform="matrix(1 0 0 1 -2767.822 -147.0002)" font-family="'Montserrat-SemiBold'" font-size="120" letter-spacing="3">GOVERNANCE</text>
</g>
<g>
	<g>
		<polygon points="-923.814,-1487 -1670,-1487 -1670,-560 -1496.729,-560 		"/>
		<polygon points="-1321.445,-560 -744,-560 -744,-1487 -748.529,-1487 		"/>
	</g>
	<text transform="matrix(1 0 0 1 -1693.7683 -313.6667)" font-family="'Montserrat-SemiBold'" font-size="220" letter-spacing="11">REVELA</text>
	<text transform="matrix(1 0 0 1 -1427.2693 -147.0002)" font-family="'Montserrat-SemiBold'" font-size="120" letter-spacing="3">MEDIA</text>
</g>
<g>
	<g>
		<polygon points="-4208.601,-1487 -4955,-1487 -4955,-560 -4781.517,-560 		"/>
		<polygon points="-4606.232,-560 -4029,-560 -4029,-1487 -4033.317,-1487 		"/>
	</g>
	<text transform="matrix(1 0 0 1 -4978.3271 -313.6667)" font-family="'Montserrat-SemiBold'" font-size="220" letter-spacing="11">REVELA</text>
	<text transform="matrix(1 0 0 1 -4884.3877 -147.0002)" font-family="'Montserrat-SemiBold'" font-size="120" letter-spacing="3">EDUCATION</text>
</g>
<g>
	<g>
		<g>
			<g>
				<polygon points="2349.603,3305 2039,3305 2039,3690 2111.865,3690 				"/>
			</g>
			<g>
				<polygon points="2184.602,3690 2424,3690 2424,3305 2422.339,3305 				"/>
			</g>
		</g>
		<g>
			<path d="M2038.768,3791.778v-63.904h26.2c8.52,0,15.2,2.008,20.039,6.025c4.838,4.017,7.258,9.586,7.258,16.707
				c0,4.687-1.095,8.718-3.286,12.096s-5.311,5.966-9.357,7.76c-4.048,1.796-8.901,2.693-14.561,2.693h-19.719l5.295-5.386v24.01
				L2038.768,3791.778L2038.768,3791.778z M2050.635,3769.046l-5.295-5.66h19.171c5.233,0,9.175-1.125,11.822-3.378
				c2.647-2.251,3.971-5.386,3.971-9.403c0-4.077-1.324-7.212-3.971-9.403c-2.647-2.191-6.589-3.286-11.822-3.286h-19.171
				l5.295-5.843V3769.046z M2080.579,3791.778l-16.158-23.188h12.689l16.25,23.188H2080.579z"/>
			<path d="M2110.065,3791.778v-63.904h46.65v9.951h-34.782v44.002h36.06v9.951H2110.065L2110.065,3791.778z M2121.02,3764.208
				v-9.768h31.769v9.768H2121.02z"/>
			<path d="M2193.78,3791.778l-27.935-63.904h12.872l24.923,57.787h-7.395l25.196-57.787h11.868l-27.844,63.904H2193.78z"/>
			<path d="M2244.628,3791.778v-63.904h46.65v9.951h-34.782v44.002h36.06v9.951H2244.628L2244.628,3791.778z M2255.583,3764.208
				v-9.768h31.769v9.768H2255.583z"/>
			<path d="M2310.357,3791.778v-63.904h11.868v53.862h33.412v10.042H2310.357z"/>
			<path d="M2360.658,3791.778l28.757-63.904h11.685l28.848,63.904h-12.416l-24.74-57.605h4.747l-24.649,57.605H2360.658z
				 M2373.896,3776.989l3.195-9.312h34.508l3.195,9.312H2373.896z"/>
		</g>
		<g>
			<path d="M2128.622,3860.938v-34.857h6.473v34.857H2128.622z M2134.548,3846v-5.527h19.072V3846H2134.548z M2153.121,3860.938
				v-34.857h6.473v34.857H2153.121z"/>
			<path d="M2170.45,3860.938v-34.857h25.446v5.428h-18.972v24.001h19.669v5.428H2170.45z M2176.425,3845.9v-5.328h17.329v5.328
				H2176.425z"/>
			<path d="M2200.376,3860.938l15.686-34.857h6.374l15.735,34.857h-6.772l-13.495-31.421h2.589l-13.445,31.421H2200.376z
				 M2207.597,3852.871l1.743-5.079h18.823l1.743,5.079H2207.597z"/>
			<path d="M2244.096,3860.938v-34.857h6.474v29.379h18.225v5.478H2244.096z"/>
			<path d="M2278.754,3860.938v-29.379h-11.552v-5.478h29.578v5.478h-11.552v29.379H2278.754z"/>
			<path d="M2303.153,3860.938v-34.857h6.473v34.857H2303.153z M2309.079,3846v-5.527h19.072V3846H2309.079z M2327.653,3860.938
				v-34.857h6.473v34.857H2327.653z"/>
		</g>
	</g>
	<g>
		<g>
			<g>
				<polygon points="3258.23,3305 2948,3305 2948,3690 3020.492,3690 				"/>
			</g>
			<g>
				<polygon points="3093.229,3690 3332,3690 3332,3305 3330.966,3305 				"/>
			</g>
		</g>
		<g>
			<path d="M2947.409,3791.778v-63.904h26.2c8.52,0,15.2,2.008,20.039,6.025s7.258,9.586,7.258,16.707
				c0,4.687-1.096,8.718-3.286,12.096c-2.191,3.378-5.311,5.966-9.358,7.76c-4.048,1.796-8.901,2.693-14.561,2.693h-19.719
				l5.295-5.386v24.01L2947.409,3791.778L2947.409,3791.778z M2959.277,3769.046l-5.295-5.66h19.171
				c5.233,0,9.175-1.125,11.822-3.378c2.647-2.251,3.971-5.386,3.971-9.403c0-4.077-1.324-7.212-3.971-9.403
				c-2.647-2.191-6.589-3.286-11.822-3.286h-19.171l5.295-5.843V3769.046z M2989.221,3791.778l-16.159-23.188h12.69l16.25,23.188
				H2989.221z"/>
			<path d="M3018.707,3791.778v-63.904h46.65v9.951h-34.782v44.002h36.06v9.951H3018.707L3018.707,3791.778z M3029.662,3764.208
				v-9.768h31.77v9.768H3029.662z"/>
			<path d="M3102.421,3791.778l-27.935-63.904h12.872l24.923,57.787h-7.395l25.196-57.787h11.868l-27.844,63.904H3102.421z"/>
			<path d="M3153.27,3791.778v-63.904h46.65v9.951h-34.782v44.002h36.06v9.951H3153.27L3153.27,3791.778z M3164.225,3764.208v-9.768
				h31.77v9.768H3164.225z"/>
			<path d="M3218.999,3791.778v-63.904h11.868v53.862h33.412v10.042H3218.999z"/>
			<path d="M3269.3,3791.778l28.757-63.904h11.685l28.848,63.904h-12.416l-24.74-57.605h4.748l-24.649,57.605H3269.3z
				 M3282.537,3776.989l3.195-9.312h34.508l3.195,9.312H3282.537z"/>
		</g>
		<g>
			<path d="M3022.874,3860.938v-34.857h25.446v5.428h-18.972v29.429H3022.874z M3028.799,3847.593v-5.478h17.379v5.478H3028.799z"/>
			<path d="M3056.087,3860.938v-34.857h6.473v34.857H3056.087z"/>
			<path d="M3073.465,3860.938v-34.857h5.328l21.86,26.839h-2.639v-26.839h6.424v34.857h-5.328l-21.86-26.84h2.639v26.84H3073.465z"
				/>
			<path d="M3110.363,3860.938l15.686-34.857h6.374l15.735,34.857h-6.772l-13.495-31.421h2.589l-13.445,31.421H3110.363z
				 M3117.583,3852.871l1.743-5.079h18.823l1.743,5.079H3117.583z"/>
			<path d="M3154.083,3860.938v-34.857h5.328l21.86,26.839h-2.639v-26.839h6.424v34.857h-5.328l-21.86-26.84h2.639v26.84H3154.083z"
				/>
			<path d="M3212.044,3861.437c-2.656,0-5.121-0.441-7.395-1.32c-2.274-0.879-4.25-2.124-5.926-3.735
				c-1.677-1.61-2.98-3.51-3.909-5.701c-0.93-2.191-1.394-4.581-1.394-7.171c0-2.589,0.465-4.979,1.394-7.171
				c0.929-2.191,2.241-4.091,3.934-5.701c1.693-1.61,3.668-2.855,5.926-3.735c2.257-0.879,4.731-1.32,7.419-1.32
				c2.855,0,5.461,0.49,7.818,1.469c2.357,0.979,4.349,2.432,5.975,4.357l-4.183,3.934c-1.262-1.361-2.672-2.382-4.232-3.062
				c-1.561-0.68-3.254-1.021-5.079-1.021c-1.826,0-3.494,0.299-5.005,0.896c-1.511,0.598-2.822,1.444-3.934,2.54
				c-1.113,1.096-1.975,2.39-2.589,3.884c-0.615,1.494-0.921,3.137-0.921,4.93s0.307,3.436,0.921,4.93
				c0.614,1.494,1.477,2.788,2.589,3.884c1.112,1.095,2.423,1.942,3.934,2.54c1.51,0.597,3.178,0.896,5.005,0.896
				c1.825,0,3.518-0.34,5.079-1.021c1.56-0.68,2.971-1.718,4.232-3.112l4.183,3.984c-1.627,1.892-3.619,3.336-5.975,4.332
				C3217.555,3860.938,3214.933,3861.437,3212.044,3861.437z"/>
			<path d="M3233.157,3860.938v-34.857h25.446v5.428h-18.972v24.001h19.669v5.428H3233.157z M3239.132,3845.9v-5.328h17.329v5.328
				H3239.132z"/>
		</g>
	</g>
	<g>
		<g>
			<g>
				<polygon points="3712.486,3305 3403,3305 3403,3690 3474.749,3690 				"/>
			</g>
			<g>
				<polygon points="3547.485,3690 3787,3690 3787,3305 3785.222,3305 				"/>
			</g>
		</g>
		<g>
			<path d="M3401.73,3791.778v-63.904h26.201c8.52,0,15.2,2.008,20.038,6.025c4.839,4.017,7.258,9.586,7.258,16.707
				c0,4.687-1.095,8.718-3.286,12.096s-5.311,5.966-9.358,7.76c-4.048,1.796-8.901,2.693-14.561,2.693h-19.719l5.295-5.386v24.01
				L3401.73,3791.778L3401.73,3791.778z M3413.598,3769.046l-5.295-5.66h19.171c5.233,0,9.175-1.125,11.822-3.378
				c2.647-2.251,3.971-5.386,3.971-9.403c0-4.077-1.324-7.212-3.971-9.403c-2.647-2.191-6.589-3.286-11.822-3.286h-19.171
				l5.295-5.843V3769.046z M3443.542,3791.778l-16.159-23.188h12.69l16.25,23.188H3443.542z"/>
			<path d="M3473.028,3791.778v-63.904h46.65v9.951h-34.782v44.002h36.06v9.951H3473.028L3473.028,3791.778z M3483.983,3764.208
				v-9.768h31.77v9.768H3483.983z"/>
			<path d="M3556.743,3791.778l-27.935-63.904h12.872l24.922,57.787h-7.394l25.196-57.787h11.868l-27.844,63.904H3556.743z"/>
			<path d="M3607.591,3791.778v-63.904h46.65v9.951h-34.782v44.002h36.06v9.951H3607.591L3607.591,3791.778z M3618.546,3764.208
				v-9.768h31.769v9.768H3618.546z"/>
			<path d="M3673.32,3791.778v-63.904h11.868v53.862h33.413v10.042H3673.32z"/>
			<path d="M3723.621,3791.778l28.757-63.904h11.685l28.848,63.904h-12.416l-24.74-57.605h4.747l-24.649,57.605H3723.621z
				 M3736.858,3776.989l3.195-9.312h34.508l3.195,9.312H3736.858z"/>
		</g>
		<g>
			<path d="M3422.744,3861.437c-2.722,0-5.221-0.441-7.494-1.32c-2.274-0.879-4.258-2.124-5.95-3.735
				c-1.693-1.61-3.005-3.51-3.934-5.701c-0.93-2.191-1.394-4.581-1.394-7.171c0-2.589,0.464-4.979,1.394-7.171
				c0.929-2.191,2.248-4.091,3.959-5.701c1.709-1.61,3.71-2.855,6-3.735c2.29-0.879,4.796-1.32,7.519-1.32
				c2.955,0,5.619,0.482,7.993,1.444c2.373,0.963,4.373,2.374,6,4.233l-4.083,3.984c-1.362-1.361-2.831-2.365-4.407-3.013
				c-1.577-0.647-3.312-0.971-5.204-0.971c-1.826,0-3.519,0.299-5.079,0.896c-1.561,0.598-2.905,1.444-4.033,2.54
				c-1.129,1.096-2.001,2.39-2.614,3.884c-0.615,1.494-0.922,3.137-0.922,4.93c0,1.76,0.307,3.386,0.922,4.88
				c0.614,1.494,1.485,2.797,2.614,3.909c1.128,1.113,2.456,1.967,3.983,2.565c1.526,0.597,3.219,0.896,5.079,0.896
				c1.726,0,3.394-0.274,5.004-0.822c1.61-0.548,3.145-1.469,4.606-2.764l3.685,4.83c-1.826,1.461-3.943,2.565-6.349,3.312
				C3427.631,3861.063,3425.2,3861.437,3422.744,3861.437z M3436.388,3857.004l-6.125-0.846v-13.047h6.125V3857.004z"/>
			<path d="M3462.729,3861.437c-2.722,0-5.228-0.448-7.519-1.345c-2.291-0.896-4.282-2.149-5.975-3.759
				c-1.693-1.61-3.005-3.502-3.934-5.677c-0.93-2.174-1.395-4.556-1.395-7.146c0-2.589,0.465-4.971,1.395-7.146
				c0.929-2.174,2.241-4.066,3.934-5.677c1.693-1.61,3.685-2.863,5.975-3.759c2.291-0.896,4.781-1.344,7.469-1.344
				c2.722,0,5.22,0.448,7.494,1.344c2.273,0.896,4.258,2.15,5.95,3.759c1.693,1.611,3.004,3.503,3.934,5.677
				c0.929,2.175,1.395,4.556,1.395,7.146c0,2.59-0.465,4.979-1.395,7.171c-0.929,2.191-2.24,4.083-3.934,5.677
				c-1.693,1.594-3.677,2.838-5.95,3.735C3467.899,3860.988,3465.418,3861.437,3462.729,3861.437z M3462.679,3855.76
				c1.759,0,3.386-0.299,4.88-0.896c1.494-0.598,2.789-1.452,3.884-2.565c1.095-1.112,1.95-2.406,2.564-3.884
				c0.614-1.477,0.921-3.112,0.921-4.905s-0.307-3.427-0.921-4.905c-0.614-1.477-1.469-2.771-2.564-3.884
				c-1.095-1.112-2.39-1.967-3.884-2.565c-1.494-0.597-3.121-0.896-4.88-0.896c-1.76,0-3.378,0.299-4.855,0.896
				c-1.477,0.598-2.772,1.453-3.884,2.565c-1.113,1.113-1.976,2.407-2.59,3.884c-0.615,1.478-0.921,3.112-0.921,4.905
				c0,1.76,0.306,3.386,0.921,4.88c0.614,1.494,1.469,2.797,2.564,3.909c1.096,1.113,2.39,1.967,3.884,2.565
				C3459.293,3855.461,3460.919,3855.76,3462.679,3855.76z"/>
			<path d="M3499.03,3860.938l-15.237-34.857h7.021l13.594,31.52h-4.033l13.744-31.52h6.473l-15.187,34.857H3499.03z"/>
			<path d="M3525.769,3860.938v-34.857h25.446v5.428h-18.972v24.001h19.669v5.428H3525.769z M3531.745,3845.9v-5.328h17.329v5.328
				H3531.745z"/>
			<path d="M3560.626,3860.938v-34.857h14.291c4.647,0,8.291,1.095,10.93,3.286s3.959,5.228,3.959,9.113
				c0,2.557-0.597,4.755-1.793,6.598c-1.195,1.842-2.897,3.254-5.104,4.233c-2.208,0.979-4.855,1.469-7.942,1.469h-10.756
				l2.888-2.938v13.096L3560.626,3860.938L3560.626,3860.938z M3567.1,3848.539l-2.888-3.087h10.457
				c2.854,0,5.004-0.614,6.448-1.842s2.166-2.938,2.166-5.129c0-2.224-0.722-3.934-2.166-5.129s-3.594-1.792-6.448-1.792h-10.457
				l2.888-3.187V3848.539z M3583.433,3860.938l-8.814-12.648h6.921l8.864,12.648H3583.433z"/>
			<path d="M3598.52,3860.938v-34.857h5.328l21.86,26.839h-2.639v-26.839h6.424v34.857h-5.328l-21.86-26.84h2.639v26.84H3598.52z"/>
			<path d="M3635.418,3860.938l15.686-34.857h6.374l15.736,34.857h-6.772l-13.495-31.421h2.589l-13.445,31.421H3635.418z
				 M3642.638,3852.871l1.743-5.079h18.823l1.743,5.079H3642.638z"/>
			<path d="M3679.138,3860.938v-34.857h5.328l21.86,26.839h-2.639v-26.839h6.423v34.857h-5.328l-21.86-26.84h2.639v26.84H3679.138z"
				/>
			<path d="M3737.099,3861.437c-2.656,0-5.121-0.441-7.395-1.32c-2.274-0.879-4.25-2.124-5.926-3.735
				c-1.677-1.61-2.98-3.51-3.909-5.701s-1.394-4.581-1.394-7.171c0-2.589,0.464-4.979,1.394-7.171
				c0.929-2.191,2.241-4.091,3.934-5.701c1.693-1.61,3.668-2.855,5.926-3.735c2.257-0.879,4.73-1.32,7.419-1.32
				c2.854,0,5.46,0.49,7.818,1.469c2.357,0.979,4.349,2.432,5.975,4.357l-4.182,3.934c-1.262-1.361-2.673-2.382-4.233-3.062
				c-1.561-0.68-3.254-1.021-5.079-1.021c-1.826,0-3.494,0.299-5.004,0.896c-1.511,0.598-2.822,1.444-3.934,2.54
				c-1.113,1.096-1.975,2.39-2.589,3.884c-0.615,1.494-0.921,3.137-0.921,4.93s0.306,3.436,0.921,4.93
				c0.614,1.494,1.477,2.788,2.589,3.884c1.112,1.095,2.423,1.942,3.934,2.54c1.51,0.597,3.178,0.896,5.004,0.896
				c1.825,0,3.518-0.34,5.079-1.021c1.56-0.68,2.97-1.718,4.233-3.112l4.182,3.984c-1.626,1.892-3.618,3.336-5.975,4.332
				C3742.609,3860.938,3739.988,3861.437,3737.099,3861.437z"/>
			<path d="M3758.212,3860.938v-34.857h25.445v5.428h-18.972v24.001h19.669v5.428H3758.212z M3764.187,3845.9v-5.328h17.329v5.328
				H3764.187z"/>
		</g>
	</g>
	<g>
		<g>
			<g>
				<polygon points="4166.971,3305 3857,3305 3857,3690 3929.234,3690 				"/>
			</g>
			<g>
				<polygon points="4001.97,3690 4241,3690 4241,3305 4239.707,3305 				"/>
			</g>
		</g>
		<g>
			<path d="M3856.052,3791.778v-63.904h26.2c8.52,0,15.2,2.008,20.038,6.025c4.839,4.017,7.258,9.586,7.258,16.707
				c0,4.687-1.096,8.718-3.286,12.096c-2.191,3.378-5.311,5.966-9.358,7.76c-4.048,1.796-8.901,2.693-14.561,2.693h-19.719
				l5.295-5.386v24.01L3856.052,3791.778L3856.052,3791.778z M3867.919,3769.046l-5.295-5.66h19.171
				c5.233,0,9.175-1.125,11.822-3.378c2.647-2.251,3.971-5.386,3.971-9.403c0-4.077-1.324-7.212-3.971-9.403
				c-2.647-2.191-6.589-3.286-11.822-3.286h-19.171l5.295-5.843V3769.046z M3897.863,3791.778l-16.159-23.188h12.689l16.25,23.188
				H3897.863z"/>
			<path d="M3927.349,3791.778v-63.904h46.65v9.951h-34.782v44.002h36.06v9.951H3927.349L3927.349,3791.778z M3938.304,3764.208
				v-9.768h31.77v9.768H3938.304z"/>
			<path d="M4011.063,3791.778l-27.935-63.904H3996l24.922,57.787h-7.394l25.196-57.787h11.868l-27.844,63.904H4011.063z"/>
			<path d="M4061.912,3791.778v-63.904h46.65v9.951h-34.782v44.002h36.06v9.951H4061.912L4061.912,3791.778z M4072.867,3764.208
				v-9.768h31.77v9.768H4072.867z"/>
			<path d="M4127.642,3791.778v-63.904h11.868v53.862h33.412v10.042H4127.642z"/>
			<path d="M4177.942,3791.778l28.757-63.904h11.686l28.848,63.904h-12.416l-24.74-57.605h4.748l-24.649,57.605H4177.942z
				 M4191.18,3776.989l3.195-9.312h34.508l3.195,9.312H4191.18z"/>
		</g>
		<g>
			<path d="M3962.738,3860.938v-34.857h5.328l15.237,25.445h-2.788l14.989-25.445h5.328l0.05,34.857h-6.125l-0.05-25.246h1.295
				l-12.747,21.263h-2.889l-12.946-21.263h1.494v25.246H3962.738z"/>
			<path d="M4011.785,3860.938v-34.857h25.446v5.428h-18.972v24.001h19.669v5.428H4011.785z M4017.761,3845.9v-5.328h17.329v5.328
				H4017.761z"/>
			<path d="M4046.642,3860.938v-34.857h15.237c3.784,0,7.104,0.73,9.959,2.191s5.079,3.486,6.673,6.075
				c1.594,2.589,2.39,5.644,2.39,9.162c0,3.486-0.797,6.531-2.39,9.137c-1.593,2.606-3.818,4.64-6.673,6.1
				c-2.855,1.461-6.175,2.191-9.959,2.191L4046.642,3860.938L4046.642,3860.938z M4053.115,3855.461h8.466
				c2.589,0,4.846-0.498,6.772-1.494c1.925-0.996,3.411-2.39,4.456-4.183c1.046-1.793,1.569-3.884,1.569-6.274
				c0-2.423-0.523-4.523-1.569-6.299c-1.045-1.776-2.531-3.162-4.456-4.158c-1.926-0.996-4.183-1.494-6.772-1.494h-8.466V3855.461z"
				/>
			<path d="M4089.266,3860.938v-34.857h6.473v34.857H4089.266z"/>
			<path d="M4101.714,3860.938l15.685-34.857h6.374l15.735,34.857h-6.772l-13.494-31.421h2.589l-13.444,31.421H4101.714z
				 M4108.934,3852.871l1.743-5.079h18.823l1.743,5.079H4108.934z"/>
		</g>
	</g>
	<g>
		<g>
			<g>
				<polygon points="2803.913,3305 2494,3305 2494,3690 2566.176,3690 				"/>
			</g>
			<g>
				<polygon points="2638.912,3690 2878,3690 2878,3305 2876.649,3305 				"/>
			</g>
		</g>
		<g>
			<path d="M2493.088,3791.778v-63.904h26.2c8.52,0,15.2,2.008,20.039,6.025c4.838,4.017,7.258,9.586,7.258,16.707
				c0,4.687-1.096,8.718-3.287,12.096c-2.191,3.378-5.311,5.966-9.357,7.76c-4.048,1.796-8.901,2.693-14.561,2.693h-19.719
				l5.295-5.386v24.01L2493.088,3791.778L2493.088,3791.778z M2504.956,3769.046l-5.295-5.66h19.171
				c5.233,0,9.175-1.125,11.822-3.378c2.647-2.251,3.971-5.386,3.971-9.403c0-4.077-1.323-7.212-3.971-9.403
				c-2.647-2.191-6.589-3.286-11.822-3.286h-19.171l5.295-5.843V3769.046z M2534.9,3791.778l-16.158-23.188h12.689l16.25,23.188
				H2534.9z"/>
			<path d="M2564.386,3791.778v-63.904h46.65v9.951h-34.782v44.002h36.06v9.951H2564.386L2564.386,3791.778z M2575.341,3764.208
				v-9.768h31.77v9.768H2575.341z"/>
			<path d="M2648.1,3791.778l-27.935-63.904h12.872l24.923,57.787h-7.395l25.196-57.787h11.868l-27.844,63.904H2648.1z"/>
			<path d="M2698.949,3791.778v-63.904h46.65v9.951h-34.782v44.002h36.06v9.951H2698.949L2698.949,3791.778z M2709.904,3764.208
				v-9.768h31.77v9.768H2709.904z"/>
			<path d="M2764.678,3791.778v-63.904h11.868v53.862h33.412v10.042H2764.678z"/>
			<path d="M2814.979,3791.778l28.757-63.904h11.685l28.848,63.904h-12.416l-24.74-57.605h4.747l-24.649,57.605H2814.979z
				 M2828.216,3776.989l3.195-9.312h34.508l3.195,9.312H2828.216z"/>
		</g>
		<g>
			<path d="M2528.169,3860.938v-34.857h25.446v5.428h-18.972v24.001h19.669v5.428H2528.169z M2534.145,3845.9v-5.328h17.329v5.328
				H2534.145z"/>
			<path d="M2563.026,3860.938v-34.857h15.237c3.784,0,7.104,0.73,9.959,2.191s5.079,3.486,6.673,6.075
				c1.594,2.589,2.39,5.644,2.39,9.162c0,3.486-0.797,6.531-2.39,9.137c-1.593,2.606-3.818,4.64-6.673,6.1
				c-2.855,1.461-6.175,2.191-9.959,2.191L2563.026,3860.938L2563.026,3860.938z M2569.499,3855.461h8.465
				c2.589,0,4.847-0.498,6.772-1.494s3.411-2.39,4.457-4.183c1.046-1.793,1.569-3.884,1.569-6.274c0-2.423-0.523-4.523-1.569-6.299
				c-1.046-1.776-2.531-3.162-4.457-4.158s-4.183-1.494-6.772-1.494h-8.465V3855.461z"/>
			<path d="M2620.638,3861.437c-4.78,0-8.523-1.345-11.229-4.033c-2.706-2.689-4.058-6.573-4.058-11.652v-19.669h6.474v19.42
				c0,3.586,0.772,6.192,2.315,7.818c1.543,1.627,3.726,2.44,6.548,2.44c2.821,0,4.996-0.813,6.523-2.44
				c1.526-1.626,2.29-4.232,2.29-7.818v-19.42h6.374v19.669c0,5.079-1.353,8.963-4.058,11.652
				C2629.111,3860.092,2625.385,3861.437,2620.638,3861.437z"/>
			<path d="M2662.565,3861.437c-2.656,0-5.121-0.441-7.395-1.32c-2.274-0.879-4.25-2.124-5.926-3.735
				c-1.677-1.61-2.98-3.51-3.909-5.701c-0.93-2.191-1.395-4.581-1.395-7.171c0-2.589,0.465-4.979,1.395-7.171
				c0.929-2.191,2.241-4.091,3.934-5.701c1.693-1.61,3.668-2.855,5.926-3.735c2.257-0.879,4.73-1.32,7.419-1.32
				c2.855,0,5.46,0.49,7.818,1.469c2.357,0.979,4.349,2.432,5.976,4.357l-4.183,3.934c-1.262-1.361-2.673-2.382-4.233-3.062
				c-1.561-0.68-3.254-1.021-5.079-1.021c-1.826,0-3.494,0.299-5.004,0.896c-1.511,0.598-2.822,1.444-3.934,2.54
				c-1.113,1.096-1.976,2.39-2.589,3.884c-0.615,1.494-0.921,3.137-0.921,4.93s0.306,3.436,0.921,4.93
				c0.614,1.494,1.477,2.788,2.589,3.884c1.112,1.095,2.423,1.942,3.934,2.54c1.51,0.597,3.178,0.896,5.004,0.896
				c1.825,0,3.518-0.34,5.079-1.021c1.56-0.68,2.971-1.718,4.233-3.112l4.183,3.984c-1.627,1.892-3.619,3.336-5.976,4.332
				C2668.075,3860.938,2665.453,3861.437,2662.565,3861.437z"/>
			<path d="M2678.001,3860.938l15.686-34.857h6.374l15.735,34.857h-6.772l-13.495-31.421h2.589l-13.445,31.421H2678.001z
				 M2685.221,3852.871l1.743-5.079h18.823l1.743,5.079H2685.221z"/>
			<path d="M2727.05,3860.938v-29.379h-11.552v-5.478h29.578v5.478h-11.552v29.379H2727.05z"/>
			<path d="M2751.449,3860.938v-34.857h6.473v34.857H2751.449z"/>
			<path d="M2785.159,3861.437c-2.722,0-5.229-0.448-7.519-1.345c-2.291-0.896-4.282-2.149-5.976-3.759
				c-1.693-1.61-3.005-3.502-3.934-5.677c-0.93-2.174-1.394-4.556-1.394-7.146c0-2.589,0.465-4.971,1.394-7.146
				c0.929-2.174,2.241-4.066,3.934-5.677c1.693-1.61,3.685-2.863,5.976-3.759s4.78-1.344,7.469-1.344
				c2.722,0,5.22,0.448,7.494,1.344c2.273,0.896,4.257,2.15,5.95,3.759c1.693,1.611,3.004,3.503,3.934,5.677
				c0.929,2.175,1.394,4.556,1.394,7.146c0,2.59-0.465,4.979-1.394,7.171c-0.93,2.191-2.241,4.083-3.934,5.677
				c-1.693,1.594-3.677,2.838-5.95,3.735C2790.33,3860.988,2787.848,3861.437,2785.159,3861.437z M2785.11,3855.76
				c1.759,0,3.386-0.299,4.88-0.896c1.494-0.598,2.788-1.452,3.884-2.565c1.096-1.112,1.95-2.406,2.565-3.884
				c0.614-1.477,0.921-3.112,0.921-4.905s-0.307-3.427-0.921-4.905c-0.615-1.477-1.469-2.771-2.565-3.884
				c-1.095-1.112-2.39-1.967-3.884-2.565c-1.494-0.597-3.121-0.896-4.88-0.896c-1.76,0-3.378,0.299-4.855,0.896
				c-1.478,0.598-2.772,1.453-3.884,2.565c-1.113,1.113-1.976,2.407-2.589,3.884c-0.615,1.478-0.921,3.112-0.921,4.905
				c0,1.76,0.307,3.386,0.921,4.88c0.614,1.494,1.469,2.797,2.564,3.909c1.096,1.113,2.39,1.967,3.884,2.565
				C2781.723,3855.461,2783.35,3855.76,2785.11,3855.76z"/>
			<path d="M2812.248,3860.938v-34.857h5.328l21.86,26.839h-2.639v-26.839h6.423v34.857h-5.328l-21.86-26.84h2.639v26.84H2812.248z"
				/>
		</g>
	</g>
</g>
<g>
	<g>
		<polygon points="-4497.701,3437 -5520,3437 -5520,4707 -5282.233,4707 		"/>
		<polygon points="-5042.204,4707 -4252,4707 -4252,3437 -4257.671,3437 		"/>
	</g>
	
		<text transform="matrix(1 0 0 1 -5551.7744 5043.9385)" font-family="'Montserrat-SemiBold'" font-size="301.2613" letter-spacing="13">REVELA</text>
	
		<text transform="matrix(1 0 0 1 -5242.3833 5272.167)" font-family="'Montserrat-SemiBold'" font-size="164.3243" letter-spacing="2">HEALTH</text>
</g>
<g>
	<g>
		<polygon points="-5996.334,3437 -7018,3437 -7018,4707 -6780.867,4707 		"/>
		<polygon points="-6540.838,4707 -5750,4707 -5750,3437 -5756.305,3437 		"/>
	</g>
	
		<text transform="matrix(1 0 0 1 -7051.0327 5043.9385)" font-family="'Montserrat-SemiBold'" font-size="301.2613" letter-spacing="13">REVELA</text>
	
		<text transform="matrix(1 0 0 1 -6714.1152 5272.167)" font-family="'Montserrat-SemiBold'" font-size="164.3243" letter-spacing="2">GROUP</text>
</g>
<g>
	<g>
		<polygon points="-1499.234,3437 -2521,3437 -2521,4707 -2283.766,4707 		"/>
		<polygon points="-2043.737,4707 -1253,4707 -1253,3437 -1259.204,3437 		"/>
	</g>
	
		<text transform="matrix(1 0 0 1 -2553.2581 5043.9385)" font-family="'Montserrat-SemiBold'" font-size="301.2613" letter-spacing="13">REVELA</text>
	
		<text transform="matrix(1 0 0 1 -2291.3545 5272.167)" font-family="'Montserrat-SemiBold'" font-size="164.3243" letter-spacing="2">FINANCE</text>
</g>
<g>
	<g>
		<polygon points="-0.188,3437 -1022,3437 -1022,4707 -784.721,4707 		"/>
		<polygon points="-544.692,4707 246,4707 246,3437 239.841,3437 		"/>
	</g>
	<text transform="matrix(1 0 0 1 -1054 5043.9385)" font-family="'Montserrat-SemiBold'" font-size="301.2613" letter-spacing="13">REVELA</text>
	
		<text transform="matrix(1 0 0 1 -1025.5181 5272.167)" font-family="'Montserrat-SemiBold'" font-size="164.3243" letter-spacing="2">GOVERNANCE</text>
</g>
<g>
	<g>
		<polygon points="1499.61,3437 478,3437 478,4707 715.077,4707 		"/>
		<polygon points="955.107,4707 1746,4707 1746,3437 1739.64,3437 		"/>
	</g>
	
		<text transform="matrix(1 0 0 1 445.2578 5043.9385)" font-family="'Montserrat-SemiBold'" font-size="301.2613" letter-spacing="13">REVELA</text>
	
		<text transform="matrix(1 0 0 1 810.1937 5272.167)" font-family="'Montserrat-SemiBold'" font-size="164.3243" letter-spacing="2">MEDIA</text>
</g>
<g>
	<g>
		<polygon points="-2998.478,3437 -4021,3437 -4021,4707 -3783.01,4707 		"/>
		<polygon points="-3542.981,4707 -2753,4707 -2753,3437 -2758.448,3437 		"/>
	</g>
	
		<text transform="matrix(1 0 0 1 -4052.5164 5043.9385)" font-family="'Montserrat-SemiBold'" font-size="301.2613" letter-spacing="13">REVELA</text>
	
		<text transform="matrix(1 0 0 1 -3923.8789 5272.167)" font-family="'Montserrat-SemiBold'" font-size="164.3243" letter-spacing="2">EDUCATION</text>
</g>
<g>
	<g>
		<g>
			<polygon points="1056.736,-0.001 34.595,-0.001 34.595,1269.999 272.203,1269.999 			"/>
		</g>
		<g>
			<polygon points="512.232,1269.999 1302.595,1269.999 1302.595,-0.001 1296.765,-0.001 			"/>
		</g>
	</g>
	<g enable-background="new    ">
		<path d="M31.029,1607.238v-210.883h86.463c28.115,0,50.159,6.628,66.126,19.883c15.967,13.256,23.951,31.633,23.951,55.131
			c0,15.468-3.615,28.771-10.846,39.917c-7.23,11.147-17.525,19.686-30.88,25.607c-13.358,5.927-29.372,8.888-48.051,8.888H52.721
			l17.473-17.774v79.231H31.029z M70.193,1532.224l-17.473-18.679h63.265c17.271,0,30.276-3.714,39.014-11.146
			c8.736-7.428,13.104-17.774,13.104-31.03c0-13.453-4.368-23.8-13.104-31.029c-8.737-7.23-21.743-10.846-39.014-10.846H52.721
			l17.473-19.28V1532.224z M169.008,1607.238l-53.323-76.521h41.875l53.624,76.521H169.008z"/>
		<path d="M265.105,1607.238v-210.883h153.945v32.837H304.27V1574.4h118.999v32.838H265.105z M301.257,1516.258v-32.235h104.84
			v32.235H301.257z"/>
		<path d="M540.158,1607.238l-92.186-210.883h42.478l82.244,190.698h-24.402l83.148-190.698h39.164l-91.885,210.883H540.158z"/>
		<path d="M706.753,1607.238v-210.883h153.944v32.837h-114.78V1574.4h118.998v32.838H706.753z M742.904,1516.258v-32.235h104.839
			v32.235H742.904z"/>
		<path d="M922.455,1607.238v-210.883h39.164v177.744h110.262v33.139H922.455z"/>
		<path d="M1087.242,1607.238l94.897-210.883h38.562l95.198,210.883h-40.971l-81.643-190.096h15.666l-81.341,190.096H1087.242z
			 M1130.926,1558.433l10.544-30.729h113.877l10.544,30.729H1130.926z"/>
	</g>
	<g enable-background="new    ">
		<path d="M280.062,1835.467v-115.027h83.97v17.912h-62.607v97.115H280.062z M299.616,1791.427v-18.075h57.349v18.075H299.616z"/>
		<path d="M387.692,1835.467v-115.027h21.362v115.027H387.692z"/>
		<path d="M443.067,1835.467v-115.027h17.583l72.139,88.571h-8.709v-88.571h21.197v115.027h-17.582l-72.139-88.57h8.709v88.57
			H443.067z"/>
		<path d="M562.859,1835.467l51.763-115.027h21.033l51.927,115.027h-22.349l-44.531-103.688h8.545l-44.368,103.688H562.859z
			 M586.687,1808.846l5.752-16.762h62.114l5.751,16.762H586.687z"/>
		<path d="M705.163,1835.467v-115.027h17.583l72.139,88.571h-8.709v-88.571h21.197v115.027h-17.582l-72.139-88.57h8.709v88.57
			H705.163z"/>
		<path d="M894.465,1837.11c-8.766,0-16.9-1.453-24.402-4.354c-7.505-2.901-14.024-7.01-19.555-12.325
			c-5.533-5.312-9.834-11.584-12.899-18.814c-3.068-7.23-4.601-15.118-4.601-23.663s1.532-16.433,4.601-23.662
			c3.065-7.23,7.395-13.501,12.981-18.815c5.587-5.312,12.104-9.421,19.555-12.324c7.448-2.901,15.611-4.354,24.484-4.354
			c9.421,0,18.02,1.617,25.799,4.848c7.777,3.232,14.351,8.025,19.719,14.378l-13.803,12.981c-4.165-4.49-8.819-7.859-13.968-10.105
			c-5.15-2.244-10.737-3.369-16.761-3.369c-6.026,0-11.531,0.986-16.515,2.958c-4.986,1.972-9.312,4.766-12.981,8.381
			c-3.672,3.615-6.52,7.888-8.545,12.817c-2.028,4.93-3.04,10.353-3.04,16.268c0,5.916,1.012,11.339,3.04,16.269
			c2.025,4.93,4.873,9.202,8.545,12.817c3.669,3.615,7.995,6.408,12.981,8.38c4.983,1.973,10.488,2.958,16.515,2.958
			c6.023,0,11.61-1.122,16.761-3.368c5.148-2.244,9.803-5.67,13.968-10.271l13.803,13.146c-5.368,6.245-11.941,11.01-19.719,14.297
			C912.648,1835.467,903.995,1837.11,894.465,1837.11z"/>
		<path d="M962.164,1835.467v-115.027h83.97v17.912h-62.607v79.204h64.908v17.911H962.164z M981.883,1785.841v-17.583h57.185v17.583
			H981.883z"/>
	</g>
</g>
</svg>
